<svg width="228" height="43" viewBox="0 0 228 43" fill="none" xmlns="http://www.w3.org/2000/svg">
  <path d="m14.898 42-5.84-10.6h-1.64V42H.578V13.92h11.48c2.213 0 4.093.387 5.64 1.16 1.573.773 2.746 1.84 3.52 3.2.773 1.333 1.16 2.827 1.16 4.48 0 1.867-.534 3.533-1.6 5-1.04 1.467-2.587 2.507-4.64 3.12L22.618 42h-7.72Zm-7.48-15.44h4.24c1.253 0 2.186-.307 2.8-.92.64-.613.96-1.48.96-2.6 0-1.067-.32-1.907-.96-2.52-.614-.613-1.547-.92-2.8-.92h-4.24v6.96Zm40.293 3.92c0 .64-.04 1.307-.12 2h-15.48c.107 1.387.547 2.453 1.32 3.2.8.72 1.774 1.08 2.92 1.08 1.707 0 2.894-.72 3.56-2.16h7.28a9.86 9.86 0 0 1-2.04 3.96c-.96 1.173-2.173 2.093-3.64 2.76-1.466.667-3.106 1-4.92 1-2.186 0-4.133-.467-5.84-1.4-1.706-.933-3.04-2.267-4-4s-1.44-3.76-1.44-6.08c0-2.32.467-4.347 1.4-6.08.96-1.733 2.294-3.067 4-4 1.707-.933 3.667-1.4 5.88-1.4 2.16 0 4.08.453 5.76 1.36a9.635 9.635 0 0 1 3.92 3.88c.96 1.68 1.44 3.64 1.44 5.88Zm-7-1.8c0-1.173-.4-2.107-1.2-2.8-.8-.693-1.8-1.04-3-1.04-1.146 0-2.12.333-2.92 1-.773.667-1.253 1.613-1.44 2.84h8.56ZM71.52 13.92v5.48h-7.44V42h-6.84V19.4H49.8v-5.48h21.72Zm17.153 5.52c2.56 0 4.613.853 6.16 2.56 1.546 1.68 2.32 4 2.32 6.96V42h-6.8V29.88c0-1.493-.387-2.653-1.16-3.48-.774-.827-1.814-1.24-3.12-1.24-1.307 0-2.347.413-3.12 1.24-.774.827-1.16 1.987-1.16 3.48V42h-6.84V12.4h6.84v10.28c.693-.987 1.64-1.773 2.84-2.36s2.546-.88 4.04-.88Zm16.673-2.08c-1.2 0-2.187-.347-2.96-1.04-.747-.72-1.12-1.6-1.12-2.64 0-1.067.373-1.947 1.12-2.64.773-.72 1.76-1.08 2.96-1.08 1.173 0 2.133.36 2.88 1.08.773.693 1.16 1.573 1.16 2.64 0 1.04-.387 1.92-1.16 2.64-.747.693-1.707 1.04-2.88 1.04Zm3.4 2.32V42h-6.84V19.68h6.84Zm18.557-.24c2.613 0 4.693.853 6.24 2.56 1.573 1.68 2.36 4 2.36 6.96V42h-6.8V29.88c0-1.493-.387-2.653-1.16-3.48-.774-.827-1.814-1.24-3.12-1.24-1.307 0-2.347.413-3.12 1.24-.774.827-1.16 1.987-1.16 3.48V42h-6.84V19.68h6.84v2.96c.693-.987 1.626-1.76 2.8-2.32 1.173-.587 2.493-.88 3.96-.88ZM154.296 42l-6.8-9.36V42h-6.84V12.4h6.84v16.36l6.76-9.08h8.44l-9.28 11.2 9.36 11.12h-8.48Zm71.415-39.706a4.386 4.386 0 0 0-3.769-1.248 50.209 50.209 0 0 0-26.962 13.396 13.235 13.235 0 0 0-3.839 9.97 13.047 13.047 0 0 0 2.68 7.346l-7.747 7.752 2.416 2.416 7.745-7.746a12.703 12.703 0 0 0 7.858 2.684 14.013 14.013 0 0 0 10.095-4.361 50.75 50.75 0 0 0 12.77-26.48 4.355 4.355 0 0 0-1.247-3.73Zm-31.157 21.953a9.817 9.817 0 0 1 2.845-7.392 38.649 38.649 0 0 1 2.268-2.085v11.147l-3.399 3.4a9.69 9.69 0 0 1-1.714-5.07Zm17.164 5.895a10.101 10.101 0 0 1-13.03 1.585l8.52-8.52h9.818a41.206 41.206 0 0 1-5.308 6.935Zm11.854-24.6a49.138 49.138 0 0 1-4.64 14.25h-8.308l6.053-6.054-2.416-2.415L203.084 22.5V12.133a48.568 48.568 0 0 1 19.35-7.707 1 1 0 0 1 1.1.665.95.95 0 0 1 .038.446v.005Z" fill="#fff"/>
</svg>
